<?xml version="1.0" ?>
<!-- Uploaded to: SVG Repo, www.svgrepo.com, Generator: SVG Repo Mixer Tools -->
<svg fill="#000000" width="800px" height="800px" viewBox="0 0 108 108" id="Layeri" xmlns="http://www.w3.org/2000/svg">
<title/>
<g id="line">
<path d="M67.62,97a8.72,8.72,0,0,1,.07,1.1,7.17,7.17,0,0,1-.65,3c-1.08,2.32-3.46,4-6.9,4.81a1.84,1.84,0,0,1-.47.06H27v-4H59.43c1.49-.39,3.31-1.14,4-2.55a3.63,3.63,0,0,0,.23-2c-.2-1.75-.72-5.93-1.51-12S60.27,71.54,59,62.35a2,2,0,0,1,.56-1.67c2.92-3,6.41-7.67,6.32-13.15C65.7,35.6,49.33,26,35.91,26S6.18,35.6,5.95,47.54c-.1,5.14,3,9.6,5.59,12.44A2,2,0,0,1,12,61.59L7.32,97.48a4,4,0,0,0,4,4.52H15v4H11.29a8,8,0,0,1-7.94-9L8,62c-4-4.65-6.11-9.65-6-14.52C2.22,33.12,20.43,22,35.91,22s33.77,11.13,34,25.48c.08,5.17-2.26,10.45-6.79,15.3C65.56,80.68,67.22,93.53,67.62,97Z"/>
<path d="M103.67,77a7.72,7.72,0,0,1-.59,4.14c-1.07,2.32-3.45,4-6.89,4.81a1.9,1.9,0,0,1-.47.06H70.27c-.16-1.25-.34-2.58-.52-4H95.47c1.5-.39,3.32-1.14,4-2.56a3.55,3.55,0,0,0,.24-2c-.39-3.46-2.09-16.64-4.63-35.09a2,2,0,0,1,.55-1.68c2.93-3,6.41-7.66,6.33-13.14C101.75,15.61,85.38,6,71.95,6,61.26,6,50.19,11.66,45,19a37.6,37.6,0,0,0-4.3-.74C46.49,8.36,60.4,2,71.95,2c15.54,0,33.77,11.13,34,25.47.1,6.42-3.48,11.76-6.79,15.3C101.62,60.76,103.27,73.58,103.67,77Z"/>
<circle cx="32" cy="46.01" r="2"/>
<circle cx="35.5" cy="80.47" r="3.5"/>
<circle cx="22.5" cy="63.49" r="1.5"/>
<circle cx="50" cy="45.01" r="1"/>
<circle cx="42" cy="60.99" r="2"/>
<circle cx="60.5" cy="16.54" r="2.5"/>
<circle cx="82.5" cy="51.5" r="1.5"/>
<circle cx="18.5" cy="37.52" r="2.5"/>
<circle cx="22" cy="89.96" r="1"/>
<circle cx="50.5" cy="91.46" r="1.5"/>
<circle cx="54" cy="73.98" r="2"/>
<circle cx="74.5" cy="69.48" r="2.5"/>
<circle cx="91" cy="74.98" r="1"/>
<circle cx="92" cy="28.03" r="3"/>
<circle cx="73" cy="25.03" r="1.65"/>
<circle cx="74.5" cy="38.52" r="1.5"/>
<circle cx="79.5" cy="16.54" r="2.5"/>
<rect height="4" rx="1.93" ry="1.93" width="4" x="18.96" y="102"/>
</g>
</svg>